<?xml version="1.0" encoding="UTF-8" standalone="no"?>
<svg
   xmlns:dc="http://purl.org/dc/elements/1.1/"
   xmlns:cc="http://creativecommons.org/ns#"
   xmlns:rdf="http://www.w3.org/1999/02/22-rdf-syntax-ns#"
   xmlns:svg="http://www.w3.org/2000/svg"
   xmlns="http://www.w3.org/2000/svg"
   xmlns:sodipodi="http://sodipodi.sourceforge.net/DTD/sodipodi-0.dtd"
   xmlns:inkscape="http://www.inkscape.org/namespaces/inkscape"
   version="1.1"
   x="0px"
   y="0px"
   viewBox="0 0 77.300148 70.199997"
   xml:space="preserve"
   id="svg2"
   inkscape:version="0.91 r13725"
   sodipodi:docname="noun_761331_cc.svg"
   width="77.300148"
   height="70.199997"><metadata
     id="metadata20"><rdf:RDF><cc:Work
         rdf:about=""><dc:format>image/svg+xml</dc:format><dc:type
           rdf:resource="http://purl.org/dc/dcmitype/StillImage" /><dc:title></dc:title></cc:Work></rdf:RDF></metadata><defs
     id="defs18" /><sodipodi:namedview
     pagecolor="#ffffff"
     bordercolor="#666666"
     borderopacity="1"
     objecttolerance="10"
     gridtolerance="10"
     guidetolerance="10"
     inkscape:pageopacity="0"
     inkscape:pageshadow="2"
     inkscape:window-width="721"
     inkscape:window-height="480"
     id="namedview16"
     showgrid="false"
     fit-margin-top="0"
     fit-margin-left="0"
     fit-margin-right="0"
     fit-margin-bottom="0"
     inkscape:zoom="1.3350176"
     inkscape:cx="62.937793"
     inkscape:cy="22.9"
     inkscape:window-x="0"
     inkscape:window-y="0"
     inkscape:window-maximized="0"
     inkscape:current-layer="svg2" /><path
     d="m 64.3,70.2 c -1.3,0 -2.6,-0.5 -3.5,-1.5 -2,-2 -2,-5.1 0,-7.1 C 69.5,52.9 69.5,38.7 60.7,30 56.2,25.5 49.8,23.1 43.3,23.6 40.6,23.8 38.2,21.7 38,18.9 c -0.2,-2.8 1.9,-5.1 4.7,-5.3 9.4,-0.6 18.6,2.8 25.1,9.3 12.6,12.6 12.7,33.2 0.1,45.8 -1,1 -2.3,1.5 -3.6,1.5 z"
     id="path4"
     inkscape:connector-curvature="0" /><path
     d="M 40.7,30"
     id="path6"
     inkscape:connector-curvature="0" /><path
     d="m 37.9,37.9 c -1.3,0 -2.6,-0.5 -3.5,-1.5 L 20.5,22.5 c -2,-2 -2,-5.1 0,-7.1 L 34.4,1.5 c 2,-2 5.1,-2 7.1,0 2,2 2,5.1 0,7.1 L 31.1,19 41.5,29.4 c 2,2 2,5.1 0,7.1 -1,0.9 -2.3,1.4 -3.6,1.4 z"
     id="path8"
     inkscape:connector-curvature="0" /><path
     d="m 18.9,37.9 c -1.3,0 -2.6,-0.5 -3.5,-1.5 L 1.5,22.5 c -2,-2 -2,-5.1 0,-7.1 L 15.4,1.5 c 2,-2 5.1,-2 7.1,0 2,2 2,5.1 0,7.1 L 12.1,19 22.5,29.4 c 2,2 2,5.1 0,7.1 -1,0.9 -2.3,1.4 -3.6,1.4 z"
     id="path10"
     inkscape:connector-curvature="0" /></svg>