<?xml version="1.0" encoding="UTF-8" standalone="no"?>
<svg
   author="https://thenounproject.com/seochan.art/"
   xmlns:dc="http://purl.org/dc/elements/1.1/"
   xmlns:cc="http://creativecommons.org/ns#"
   xmlns:rdf="http://www.w3.org/1999/02/22-rdf-syntax-ns#"
   xmlns:svg="http://www.w3.org/2000/svg"
   xmlns="http://www.w3.org/2000/svg"
   xmlns:sodipodi="http://sodipodi.sourceforge.net/DTD/sodipodi-0.dtd"
   xmlns:inkscape="http://www.inkscape.org/namespaces/inkscape"
   width="8.5in"
   height="11in"
   version="1.1"
   x="0px"
   y="0px"
   viewBox="0 0 382.5 495"
   style="fill:#000000"
   xml:space="preserve"
   id="svg2"
   inkscape:version="0.91 r13725"
   sodipodi:docname="page.svg"><metadata
     id="metadata10"><rdf:RDF><cc:Work
         rdf:about=""><dc:format>image/svg+xml</dc:format><dc:type
           rdf:resource="http://purl.org/dc/dcmitype/StillImage" /><dc:title></dc:title></cc:Work></rdf:RDF></metadata><defs
     id="defs8" /><sodipodi:namedview
     pagecolor="#ffffff"
     bordercolor="#666666"
     borderopacity="1"
     objecttolerance="10"
     gridtolerance="10"
     guidetolerance="10"
     inkscape:pageopacity="0"
     inkscape:pageshadow="2"
     inkscape:window-width="722"
     inkscape:window-height="718"
     id="namedview6"
     showgrid="true"
     units="in"
     inkscape:showpageshadow="false"
     inkscape:object-paths="true"
     inkscape:snap-page="true"
     showguides="true"
     inkscape:guide-bbox="true"
     inkscape:zoom="0.59"
     inkscape:cx="282.96283"
     inkscape:cy="488.03995"
     inkscape:window-x="293"
     inkscape:window-y="59"
     inkscape:window-maximized="0"
     inkscape:current-layer="svg2"><inkscape:grid
       type="xygrid"
       id="grid4138"
       spacingx="25"
       spacingy="25"
       empspacing="1"
       color="#b5964a"
       opacity="0.1254902"
       empcolor="#c2a362"
       empopacity="0.70980392" /><sodipodi:guide
       position="23.984994,391.3057"
       orientation="1,0"
       id="guide4140" /><sodipodi:guide
       position="59.748643,390.40684"
       orientation="1,0"
       id="guide4142" /></sodipodi:namedview><path
     d="m 369.7003,17.88904 -357.636525,0 c -6.5566662,0 -11.9212181,5.364558 -11.9212181,11.921216 l 0,453.006274 c 0,6.55666 5.3645519,11.92117 11.9212181,11.92117 l 357.636525,0 c 6.55667,0 11.92122,-5.36451 11.92122,-11.92117 l 0,-453.006274 c 0,-6.556658 -5.36455,-11.921216 -11.92122,-11.921216 z m -11.92122,453.00627 -333.794086,0 0,-429.163839 333.794086,0 0,429.163839 z M 59.748643,178.82547 l 0,-95.369723 c 0,-3.576342 2.384248,-5.96063 5.960612,-5.96063 l 95.369745,0 c 3.57636,0 5.9606,2.384288 5.9606,5.96063 l 0,95.369723 c 0,3.57639 -2.38424,5.96063 -5.9606,5.96063 l -95.369745,0 c -3.576364,0 -5.960612,-2.38424 -5.960612,-5.96063 z M 214.72447,83.455747 c 0,-3.576342 2.38425,-5.96063 5.96061,-5.96063 l 95.36974,0 c 3.57636,0 5.96061,2.384288 5.96061,5.96063 0,3.576342 -2.38425,5.960585 -5.96061,5.960585 l -95.36974,0 c -3.57636,0 -5.96061,-2.384243 -5.96061,-5.960585 z m -23.84243,23.842433 c 0,-3.57639 2.38424,-5.96063 5.96061,-5.96063 l 119.21217,0 c 3.57636,0 5.96061,2.38424 5.96061,5.96063 0,3.57639 -2.38425,5.96058 -5.96061,5.96058 l -119.21217,0 c -3.57637,0 -5.96061,-2.38419 -5.96061,-5.96058 z m 0,23.84243 c 0,-3.57639 2.38424,-5.96059 5.96061,-5.96059 l 119.21217,0 c 3.57636,0 5.96061,2.3842 5.96061,5.96059 0,3.57634 -2.38425,5.96063 -5.96061,5.96063 l -119.21217,0 c -3.57637,0 -5.96061,-2.38429 -5.96061,-5.96063 z m 0,23.84243 c 0,-3.57634 2.38424,-5.96063 5.96061,-5.96063 l 119.21217,0 c 3.57636,0 5.96061,2.38429 5.96061,5.96063 0,3.57634 -2.38425,5.96058 -5.96061,5.96058 l -119.21217,0 c -3.57637,0 -5.96061,-2.38424 -5.96061,-5.96058 z m 0,23.84243 c 0,-3.57639 2.38424,-5.96063 5.96061,-5.96063 l 119.21217,0 c 3.57636,0 5.96061,2.38424 5.96061,5.96063 0,3.57639 -2.38425,5.96063 -5.96061,5.96063 l -119.21217,0 c -3.57637,0 -5.96061,-2.38424 -5.96061,-5.96063 z m 131.13339,154.9758 0,95.36977 c 0,3.57639 -2.38425,5.96058 -5.96061,5.96058 l -95.36974,0 c -3.57636,0 -5.96061,-2.38419 -5.96061,-5.96058 l 0,-95.36977 c 0,-3.5763 2.38425,-5.96059 5.96061,-5.96059 l 95.36974,0 c 3.57636,0 5.96061,2.38429 5.96061,5.96059 z m -137.094,-5.96059 c 3.57636,0 5.96061,2.38429 5.96061,5.96059 0,3.57639 -2.38425,5.96063 -5.96061,5.96063 l -95.369739,0 c -3.576365,0 -5.960613,-2.38424 -5.960613,-5.96063 0,-3.5763 2.384248,-5.96059 5.960613,-5.96059 l 95.369739,0 z M 59.748643,357.64375 c 0,-3.57639 2.384248,-5.96063 5.960612,-5.96063 l 119.212175,0 c 3.57636,0 5.96061,2.38424 5.96061,5.96063 0,3.57634 -2.38425,5.96058 -5.96061,5.96058 l -119.212175,0 c -3.576364,0 -5.960612,-2.38424 -5.960612,-5.96058 z m 0,23.84243 c 0,-3.57639 2.384248,-5.96059 5.960612,-5.96059 l 119.212175,0 c 3.57636,0 5.96061,2.3842 5.96061,5.96059 0,3.57638 -2.38425,5.96063 -5.96061,5.96063 l -119.212175,0 c -3.576364,0 -5.960612,-2.38425 -5.960612,-5.96063 z m 0,23.84238 c 0,-3.57629 2.384248,-5.96054 5.960612,-5.96054 l 119.212175,0 c 3.57636,0 5.96061,2.38425 5.96061,5.96054 0,3.57639 -2.38425,5.96063 -5.96061,5.96063 l -119.212175,0 c -3.576364,0 -5.960612,-2.38424 -5.960612,-5.96063 z m 0,23.84248 c 0,-3.57639 2.384248,-5.96063 5.960612,-5.96063 l 119.212175,0 c 3.57636,0 5.96061,2.38424 5.96061,5.96063 0,3.57639 -2.38425,5.96058 -5.96061,5.96058 l -119.212175,0 c -3.576364,0 -5.960612,-2.38419 -5.960612,-5.96058 z M 322.01543,232.47092 c 0,3.57638 -2.38425,5.96063 -5.96061,5.96063 l -226.503129,0 c -3.576365,0 -5.960613,-2.38425 -5.960613,-5.96063 0,-3.5763 2.384248,-5.96054 5.960613,-5.96054 l 226.503129,0 c 3.57636,0 5.96061,2.38424 5.96061,5.96054 z M 59.748643,256.31339 c 0,-3.57638 2.384248,-5.96063 5.960612,-5.96063 l 250.345565,0 c 3.57636,0 5.96061,2.38425 5.96061,5.96063 0,3.57634 -2.38425,5.96059 -5.96061,5.96059 l -250.345565,0 c -3.576364,0 -5.960612,-2.38425 -5.960612,-5.96059 z m 0,23.84243 c 0,-3.57638 2.384248,-5.96063 5.960612,-5.96063 l 250.345565,0 c 3.57636,0 5.96061,2.38425 5.96061,5.96063 0,3.57639 -2.38425,5.96063 -5.96061,5.96063 l -250.345565,0 c -3.576364,0 -5.960612,-2.38424 -5.960612,-5.96063 z"
     id="path4"
     inkscape:connector-curvature="0"
     style="fill:#000000" /></svg>