<!-- TODO: Add credit -->
<!-- <span>"<a href="https://thenounproject.com/search/?q=wrench&i=320539"><span class="s2">Wrench</span></a>” icon by Pencil from <a href="http://thenounproject.com/"><span class="s2">the Noun Project</span></a>.</span> -->
<!-- TODO: look at https://thenounproject.com/pencil/collection/drawn-set-1/ -->
<svg xmlns="http://www.w3.org/2000/svg" xmlns:xlink="http://www.w3.org/1999/xlink" width="200" height="200" fill="#000000" version="1.1" preserveAspectRatio="none" x="0px" y="0px" viewBox="0 0 100 100">
	<defs>
		<g id="a">
			<path fill="#000000" stroke="none" d=" M 86.25 31.65 Q 86.25 27.5 84.95 24.2 79.95 29.35 78.1 30.9 73.2 35.8 71.5 35.8 69.45 35.8 66.05 32.35 62.9 29.25 62.9 28.4 62.9 27.15 67.9 20.7 70.2 17.8 74.05 13.4 71.5 12.45 68.6 12.15 61.45 11.55 56.55 15.75 51.05 20.6 51.05 29.7 51.05 32.6 51.6 35.1 50.95 35.5 50.3 36.15 50.35 36.2 47.1 39.4 L 29.05 57.55 Q 27 59.55 25 61.3 21.15 64.6 18.85 67.6 15.25 72.3 14.55 74.15 13.85 75.9 13.85 80.1 13.85 80.15 13.75 81.45 13.75 82.9 14.3 84.1 15.95 87.95 22.2 87.95 26.95 87.95 32.15 81.8 34.85 78.6 41.1 70.3 51.3 56.85 63.5 48.35 65.55 48.8 67.9 48.8 80.35 48.8 84.35 41.15 86.2 37.7 86.25 31.65 M 83.35 34.05 Q 83.35 37.15 81.3 40.4 77.95 45.5 70.9 45.6 66.6 45.55 63.25 44.4 50.45 53.3 40.8 66.9 L 33.45 75.45 Q 31.3 79.1 29.45 81.2 26.05 85.1 22.15 85.1 17.8 85.1 16.7 82.85 16.45 82.3 16.45 79.9 16.45 74.9 21.6 68.8 22.65 67.55 24.65 65.35 L 54.75 35.45 Q 54.05 32.9 54 29.75 54 22.3 58.6 18.25 62.8 14.5 68.7 15.05 69.25 15.15 69.8 15.25 68.5 16.4 66.7 18.45 60.35 25.5 60.4 29.1 60.4 29.15 63.1 34.1 66.85 39.1 71.75 39.1 75.9 39.1 80.4 33.5 82.2 31.45 83 30.05 83.35 31.95 83.35 34.05 M 23.75 71.4 Q 21.9 71.9 20.45 73.45 18.95 75.05 18.95 76.65 18.95 76.7 19.25 79 20 81.25 22.3 81.25 26.15 81.25 27.7 79.2 28.55 78.05 28.55 76.4 28.55 70 23.75 71.4 M 26.3 76.4 Q 26.4 77 25.95 77.65 25.15 78.85 22.75 78.85 22.05 78.85 21.7 77.9 21.45 77.2 21.45 76.45 21.45 74.5 23.9 73.65 26.3 72.85 26.3 76.4 Z"/>
		</g>
	</defs>
	<g transform="matrix( 1, 0, 0, 1, 0,0) "><use xlink:href="#a"/></g>
</svg>