<!-- TODO: Add credit -->
<!-- <span>"<a href="https://thenounproject.com/plainicon/collection/tools/?i=1114192"><span class="s2">Wrench</span></a>” icon by synonymsof from <a href="http://thenounproject.com/"><span class="s2">the Noun Project</span></a>.</span> -->
<svg xmlns="http://www.w3.org/2000/svg" xmlns:xlink="http://www.w3.org/1999/xlink" width="200" height="200" fill="#000000" version="1.1" x="0px" y="0px" viewBox="0 0 30 30" enable-background="new 0 0 30 30" xml:space="preserve" title="By ">
	<g>
		<path d="M0.93,24.47c-1.238,1.248-1.238,3.261,0,4.5c0.625,0.62,1.436,0.934,2.252,0.934c0.813,0,1.629-0.314,2.25-0.934   l15.705-15.706l0.021-0.021c2.34,0.761,5.014,0.217,6.869-1.64c1.77-1.771,2.348-4.277,1.738-6.53l-3.814,3.815l-3.746-1.001   l-1.002-3.739l3.818-3.817c-2.254-0.612-4.758-0.033-6.531,1.734c-1.781,1.784-2.355,4.318-1.723,6.586L0.93,24.47z M1.689,27.222   c0-0.673,0.543-1.216,1.217-1.216c0.67,0,1.213,0.542,1.213,1.216c0,0.671-0.543,1.216-1.213,1.216   C2.232,28.438,1.689,27.893,1.689,27.222z"/>
	</g>
</svg>
